<svg id="Layer_1" data-name="Layer 1" xmlns="http://www.w3.org/2000/svg" viewBox="0 0 121.36 127.76">
  <title>adfoxly-sticky</title>
  <g id="Page-1">
    <g id="after_content" data-name="after content">
      <path id="Shape" d="M2.89,83.88V23.8a1.46,1.46,0,0,0-1.45-1.47A1.46,1.46,0,0,0,0,23.8V82.41C0,84.84,2.89,84.69,2.89,83.88Z" transform="translate(0 -1)" style="fill: #8e97a7"/>
      <path d="M119.92,22.33a1.46,1.46,0,0,0-1.45,1.47V82.41c0,.81,2.89,2.43,2.89,0V23.8A1.45,1.45,0,0,0,119.92,22.33Z" transform="translate(0 -1)" style="fill: #8e97a7"/>
      <path d="M119.92,64.29a1.46,1.46,0,0,0-1.45,1.46v58.62a1.44,1.44,0,0,1-1.44,1.46H4.33a1.45,1.45,0,0,1-1.44-1.46V65.75a1.46,1.46,0,0,0-1.45-1.46A1.46,1.46,0,0,0,0,65.75v58.62a4.36,4.36,0,0,0,4.33,4.39H117a4.36,4.36,0,0,0,4.33-4.39V65.75A1.45,1.45,0,0,0,119.92,64.29Z" transform="translate(0 -1)" style="fill: #8e97a7"/>
      <path d="M117,1H4.33A4.3,4.3,0,0,0,0,5.27V22.33a1.44,1.44,0,0,0,1.44,1.43H119.92a1.43,1.43,0,0,0,1.44-1.43V5.27A4.3,4.3,0,0,0,117,1Zm1.44,19.91H2.89V5.27A1.44,1.44,0,0,1,4.33,3.84H117a1.43,1.43,0,0,1,1.44,1.43Z" transform="translate(0 -1)" style="fill: #8e97a7"/>
      <g id="Group-5">
        <g id="Group-2">
          <path d="M19.42,64.79H62.09c.78,0,1.42-.85,1.42-1.89S62.87,61,62.09,61H19.42c-.78,0-1.42.85-1.42,1.9S18.64,64.79,19.42,64.79Z" transform="translate(0 -1)" style="fill: #8e97a7"/>
          <path d="M61.14,64.79h42.67c.78,0,1.42-.85,1.42-1.89s-.64-1.9-1.42-1.9H61.14c-.78,0-1.42.85-1.42,1.9S60.36,64.79,61.14,64.79Z" transform="translate(0 -1)" style="fill: #8e97a7"/>
        </g>
        <g id="Group-3">
          <path d="M19.42,74.51H62.09c.78,0,1.42-.85,1.42-1.9s-.64-1.89-1.42-1.89H19.42c-.78,0-1.42.85-1.42,1.89S18.64,74.51,19.42,74.51Z" transform="translate(0 -1)" style="fill: #8e97a7"/>
          <path d="M61.14,74.51h42.67c.78,0,1.42-.85,1.42-1.9s-.64-1.89-1.42-1.89H61.14c-.78,0-1.42.85-1.42,1.89S60.36,74.51,61.14,74.51Z" transform="translate(0 -1)" style="fill: #8e97a7"/>
        </g>
        <g id="Group-4">
          <path d="M19.42,84.23H62.09c.78,0,1.42-.85,1.42-1.9s-.64-1.89-1.42-1.89H19.42c-.78,0-1.42.85-1.42,1.89S18.64,84.23,19.42,84.23Z" transform="translate(0 -1)" style="fill: #8e97a7"/>
          <path d="M61.14,84.23h42.67c.78,0,1.42-.85,1.42-1.9s-.64-1.89-1.42-1.89H61.14c-.78,0-1.42.85-1.42,1.89S60.36,84.23,61.14,84.23Z" transform="translate(0 -1)" style="fill: #8e97a7"/>
        </g>
      </g>
      <g>
        <g>
          <path d="M19.42,34.79H62.09c.78,0,1.42-.85,1.42-1.89S62.87,31,62.09,31H19.42c-.78,0-1.42.85-1.42,1.9S18.64,34.79,19.42,34.79Z" transform="translate(0 -1)" style="fill: #8e97a7"/>
          <path d="M61.14,34.79h42.67c.78,0,1.42-.85,1.42-1.89s-.64-1.9-1.42-1.9H61.14c-.78,0-1.42.85-1.42,1.9S60.36,34.79,61.14,34.79Z" transform="translate(0 -1)" style="fill: #8e97a7"/>
        </g>
        <g>
          <path d="M19.42,44.51H62.09c.78,0,1.42-.85,1.42-1.9s-.64-1.89-1.42-1.89H19.42c-.78,0-1.42.85-1.42,1.89S18.64,44.51,19.42,44.51Z" transform="translate(0 -1)" style="fill: #8e97a7"/>
          <path d="M61.14,44.51h42.67c.78,0,1.42-.85,1.42-1.9s-.64-1.89-1.42-1.89H61.14c-.78,0-1.42.85-1.42,1.89S60.36,44.51,61.14,44.51Z" transform="translate(0 -1)" style="fill: #8e97a7"/>
        </g>
        <g>
          <path d="M19.42,54.23H62.09c.78,0,1.42-.85,1.42-1.9s-.64-1.89-1.42-1.89H19.42c-.78,0-1.42.85-1.42,1.89S18.64,54.23,19.42,54.23Z" transform="translate(0 -1)" style="fill: #8e97a7"/>
          <path d="M61.14,54.23h42.67c.78,0,1.42-.85,1.42-1.9s-.64-1.89-1.42-1.89H61.14c-.78,0-1.42.85-1.42,1.89S60.36,54.23,61.14,54.23Z" transform="translate(0 -1)" style="fill: #8e97a7"/>
        </g>
      </g>
      <circle id="Oval" cx="12.33" cy="12.33" r="2.84" style="fill: #8e97a7"/>
      <circle cx="23.7" cy="12.33" r="2.84" style="fill: #8e97a7"/>
      <circle cx="35.08" cy="12.33" r="2.84" style="fill: #8e97a7"/>
      <g id="Ad">
        <path id="Rectangle" d="M17.07,125.83V105.11a3.85,3.85,0,0,1,4-3.69H100.3a3.85,3.85,0,0,1,4,3.69v20.72" transform="translate(0 -1)" style="fill: #658ec4;fill-rule: evenodd"/>
      </g>
      <g id="Group-4-2" data-name="Group-4">
        <path d="M19.42,94.23H62.09c.78,0,1.42-.85,1.42-1.9s-.64-1.89-1.42-1.89H19.42c-.78,0-1.42.85-1.42,1.89S18.64,94.23,19.42,94.23Z" transform="translate(0 -1)" style="fill: #8e97a7"/>
        <path d="M61.14,94.23h42.67c.78,0,1.42-.85,1.42-1.9s-.64-1.89-1.42-1.89H61.14c-.78,0-1.42.85-1.42,1.89S60.36,94.23,61.14,94.23Z" transform="translate(0 -1)" style="fill: #8e97a7"/>
      </g>
    </g>
  </g>
</svg>
