<svg id="Layer_1" data-name="Layer 1" xmlns="http://www.w3.org/2000/svg" viewBox="0 0 121.36 127.76">
  <title>adfoxly-sticky</title>
  <g id="Page-1">
    <g id="after_content" data-name="after content">
      <path id="Shape" d="M2.89,83.88V23.8a1.46,1.46,0,0,0-1.45-1.47A1.46,1.46,0,0,0,0,23.8V82.41C0,84.84,2.89,84.69,2.89,83.88Z" transform="translate(0 -1)" style="fill: #8e97a7"/>
      <path d="M119.92,22.33a1.46,1.46,0,0,0-1.45,1.47V82.41c0,.81,2.89,2.43,2.89,0V23.8A1.45,1.45,0,0,0,119.92,22.33Z" transform="translate(0 -1)" style="fill: #8e97a7"/>
      <path d="M119.92,64.29a1.46,1.46,0,0,0-1.45,1.46v58.62a1.44,1.44,0,0,1-1.44,1.46H4.33a1.45,1.45,0,0,1-1.44-1.46V65.75a1.46,1.46,0,0,0-1.45-1.46A1.46,1.46,0,0,0,0,65.75v58.62a4.36,4.36,0,0,0,4.33,4.39H117a4.36,4.36,0,0,0,4.33-4.39V65.75A1.45,1.45,0,0,0,119.92,64.29Z" transform="translate(0 -1)" style="fill: #8e97a7"/>
      <path d="M117,1H4.33A4.3,4.3,0,0,0,0,5.27V22.33a1.44,1.44,0,0,0,1.44,1.43H119.92a1.43,1.43,0,0,0,1.44-1.43V5.27A4.3,4.3,0,0,0,117,1Zm1.44,19.91H2.89V5.27A1.44,1.44,0,0,1,4.33,3.84H117a1.43,1.43,0,0,1,1.44,1.43Z" transform="translate(0 -1)" style="fill: #8e97a7"/>
      <g id="Group-5">
        <g id="Group-2">
          <path d="M19.42,61.79H62.09c.78,0,1.42-.85,1.42-1.89S62.87,58,62.09,58H19.42c-.78,0-1.42.85-1.42,1.9S18.64,61.79,19.42,61.79Z" transform="translate(0 -1)" style="fill: #8e97a7"/>
          <path d="M61.14,61.79h42.67c.78,0,1.42-.85,1.42-1.89s-.64-1.9-1.42-1.9H61.14c-.78,0-1.42.85-1.42,1.9S60.36,61.79,61.14,61.79Z" transform="translate(0 -1)" style="fill: #8e97a7"/>
        </g>
        <g id="Group-3">
          <path d="M19.42,71.51H62.09c.78,0,1.42-.85,1.42-1.9s-.64-1.89-1.42-1.89H19.42c-.78,0-1.42.85-1.42,1.89S18.64,71.51,19.42,71.51Z" transform="translate(0 -1)" style="fill: #8e97a7"/>
          <path d="M61.14,71.51h42.67c.78,0,1.42-.85,1.42-1.9s-.64-1.89-1.42-1.89H61.14c-.78,0-1.42.85-1.42,1.89S60.36,71.51,61.14,71.51Z" transform="translate(0 -1)" style="fill: #8e97a7"/>
        </g>
        <g id="Group-4">
          <path d="M19.42,81.23H62.09c.78,0,1.42-.85,1.42-1.9s-.64-1.89-1.42-1.89H19.42c-.78,0-1.42.85-1.42,1.89S18.64,81.23,19.42,81.23Z" transform="translate(0 -1)" style="fill: #8e97a7"/>
          <path d="M61.14,81.23h42.67c.78,0,1.42-.85,1.42-1.9s-.64-1.89-1.42-1.89H61.14c-.78,0-1.42.85-1.42,1.89S60.36,81.23,61.14,81.23Z" transform="translate(0 -1)" style="fill: #8e97a7"/>
        </g>
      </g>
      <g>
        <path d="M19.42,51.23H62.09c.78,0,1.42-.85,1.42-1.9s-.64-1.89-1.42-1.89H19.42c-.78,0-1.42.85-1.42,1.89S18.64,51.23,19.42,51.23Z" transform="translate(0 -1)" style="fill: #8e97a7"/>
        <path d="M61.14,51.23h42.67c.78,0,1.42-.85,1.42-1.9s-.64-1.89-1.42-1.89H61.14c-.78,0-1.42.85-1.42,1.89S60.36,51.23,61.14,51.23Z" transform="translate(0 -1)" style="fill: #8e97a7"/>
      </g>
      <circle id="Oval" cx="12.33" cy="12.33" r="2.84" style="fill: #8e97a7"/>
      <circle cx="23.7" cy="12.33" r="2.84" style="fill: #8e97a7"/>
      <circle cx="35.08" cy="12.33" r="2.84" style="fill: #8e97a7"/>
      <g id="Ad">
        <path id="Rectangle" d="M17.07,125.83V114c0-1.16,1.79-2.1,4-2.1H100.3c2.21,0,4,.94,4,2.1v11.8" transform="translate(0 -1)" style="fill: #658ec4;fill-rule: evenodd"/>
      </g>
      <g id="Group-4-2" data-name="Group-4">
        <path d="M19.42,91.23H62.09c.78,0,1.42-.85,1.42-1.9s-.64-1.89-1.42-1.89H19.42c-.78,0-1.42.85-1.42,1.89S18.64,91.23,19.42,91.23Z" transform="translate(0 -1)" style="fill: #8e97a7"/>
        <path d="M61.14,91.23h42.67c.78,0,1.42-.85,1.42-1.9s-.64-1.89-1.42-1.89H61.14c-.78,0-1.42.85-1.42,1.89S60.36,91.23,61.14,91.23Z" transform="translate(0 -1)" style="fill: #8e97a7"/>
      </g>
    </g>
    <g id="Group-4-3" data-name="Group-4">
      <path d="M19.42,101.23H62.09c.78,0,1.42-.85,1.42-1.9s-.64-1.89-1.42-1.89H19.42c-.78,0-1.42.85-1.42,1.89S18.64,101.23,19.42,101.23Z" transform="translate(0 -1)" style="fill: #8e97a7"/>
      <path d="M61.14,101.23h42.67c.78,0,1.42-.85,1.42-1.9s-.64-1.89-1.42-1.89H61.14c-.78,0-1.42.85-1.42,1.89S60.36,101.23,61.14,101.23Z" transform="translate(0 -1)" style="fill: #8e97a7"/>
    </g>
    <g id="Ad-2" data-name="Ad">
      <path id="Rectangle-2" data-name="Rectangle" d="M118.47,99.79h-7.24c-.71,0-1.29-1-1.29-2.3V51.94c0-1.27.58-2.3,1.29-2.3h7.24" transform="translate(0 -1)" style="fill: #658ec4;fill-rule: evenodd"/>
    </g>
  </g>
  <g id="Ad-3" data-name="Ad">
    <path id="Rectangle-3" data-name="Rectangle" d="M104.3,23.76V35.55c0,1.17-1.79,2.11-4,2.11H21.07c-2.21,0-4-.94-4-2.11V23.76" transform="translate(0 -1)" style="fill: #658ec4;fill-rule: evenodd"/>
  </g>
</svg>
