<?xml version="1.0" encoding="UTF-8"?>
<svg width="122px" height="128px" viewBox="0 0 122 128" version="1.1" xmlns="http://www.w3.org/2000/svg" xmlns:xlink="http://www.w3.org/1999/xlink">
    <!-- Generator: Sketch 52.2 (67145) - http://www.bohemiancoding.com/sketch -->
    <title>background</title>
    <desc>Created with Sketch.</desc>
    <g id="Page-1" stroke="none" stroke-width="1" fill="none" fill-rule="evenodd">
        <g id="background">
            <rect id="Rectangle" stroke="#979797" fill="#658EC4" x="2.5" y="21.5" width="117" height="104"></rect>
            <path d="M2.88959436,82.8767677 L2.88959436,22.7986532 C2.88959436,21.9897966 2.24232522,21.3333333 1.44479718,21.3333333 C0.647269136,21.3333333 -1.13908882e-13,21.9897966 -1.13908882e-13,22.7986532 L-1.13908882e-13,81.4114478 C-1.13908882e-13,83.8350869 2.88959436,83.6856242 2.88959436,82.8767677 Z" id="Shape" fill="#8E97A7" fill-rule="nonzero"></path>
            <path d="M119.918166,21.3333333 C119.120638,21.3333333 118.473369,21.9897966 118.473369,22.7986532 L118.473369,81.4114478 C118.473369,82.2203044 121.362963,83.8350869 121.362963,81.4114478 L121.362963,22.7986532 C121.362963,21.9897966 120.715694,21.3333333 119.918166,21.3333333 Z" id="Shape" fill="#8E97A7" fill-rule="nonzero"></path>
            <path d="M119.918166,63.2888889 C119.120638,63.2888889 118.473369,63.9453522 118.473369,64.7542088 L118.473369,123.367003 C118.473369,124.17586 117.826099,124.832323 117.028571,124.832323 L4.33439153,124.832323 C3.53686349,124.832323 2.88959436,124.17586 2.88959436,123.367003 L2.88959436,64.7542088 C2.88959436,63.9453522 2.24232522,63.2888889 1.44479718,63.2888889 C0.647269136,63.2888889 0,63.9453522 0,64.7542088 L0,123.367003 C0,125.790642 1.944697,127.762963 4.33439153,127.762963 L117.028571,127.762963 C119.418266,127.762963 121.362963,125.790642 121.362963,123.367003 L121.362963,64.7542088 C121.362963,63.9453522 120.715694,63.2888889 119.918166,63.2888889 Z" id="Shape" fill="#8E97A7" fill-rule="nonzero"></path>
            <path d="M117.028571,0 L4.33439153,0 C1.944697,0 0,1.91431111 0,4.26666667 L0,21.3333333 C0,22.1184 0.647269136,22.7555556 1.44479718,22.7555556 L119.918166,22.7555556 C120.715694,22.7555556 121.362963,22.1184 121.362963,21.3333333 L121.362963,4.26666667 C121.362963,1.91431111 119.418266,0 117.028571,0 Z M118.473369,19.9111111 L2.88959436,19.9111111 L2.88959436,4.26666667 C2.88959436,3.4816 3.53686349,2.84444444 4.33439153,2.84444444 L117.028571,2.84444444 C117.826099,2.84444444 118.473369,3.4816 118.473369,4.26666667 L118.473369,19.9111111 Z" id="Shape" fill="#8E97A7" fill-rule="nonzero"></path>
            <g id="Group-5" transform="translate(17.066667, 93.511111)" fill="#F6F6F6" fill-rule="nonzero">
                <g id="Group-2">
                    <path d="M1.42222222,3.79259259 L44.0888889,3.79259259 C44.8739556,3.79259259 45.5111111,2.94305185 45.5111111,1.8962963 C45.5111111,0.849540741 44.8739556,0 44.0888889,0 L1.42222222,0 C0.637155556,0 0,0.849540741 0,1.8962963 C0,2.94305185 0.637155556,3.79259259 1.42222222,3.79259259 Z" id="Shape"></path>
                    <path d="M43.1407407,3.79259259 L85.8074074,3.79259259 C86.5924741,3.79259259 87.2296296,2.94305185 87.2296296,1.8962963 C87.2296296,0.849540741 86.5924741,0 85.8074074,0 L43.1407407,0 C42.3556741,0 41.7185185,0.849540741 41.7185185,1.8962963 C41.7185185,2.94305185 42.3556741,3.79259259 43.1407407,3.79259259 Z" id="Shape"></path>
                </g>
                <g id="Group-3" transform="translate(0.000000, 9.718519)">
                    <path d="M1.42222222,3.79259259 L44.0888889,3.79259259 C44.8739556,3.79259259 45.5111111,2.94305185 45.5111111,1.8962963 C45.5111111,0.849540741 44.8739556,0 44.0888889,0 L1.42222222,0 C0.637155556,0 0,0.849540741 0,1.8962963 C0,2.94305185 0.637155556,3.79259259 1.42222222,3.79259259 Z" id="Shape"></path>
                    <path d="M43.1407407,3.79259259 L85.8074074,3.79259259 C86.5924741,3.79259259 87.2296296,2.94305185 87.2296296,1.8962963 C87.2296296,0.849540741 86.5924741,0 85.8074074,0 L43.1407407,0 C42.3556741,0 41.7185185,0.849540741 41.7185185,1.8962963 C41.7185185,2.94305185 42.3556741,3.79259259 43.1407407,3.79259259 Z" id="Shape"></path>
                </g>
                <g id="Group-4" transform="translate(0.000000, 19.437037)">
                    <path d="M1.42222222,3.79259259 L44.0888889,3.79259259 C44.8739556,3.79259259 45.5111111,2.94305185 45.5111111,1.8962963 C45.5111111,0.849540741 44.8739556,0 44.0888889,0 L1.42222222,0 C0.637155556,0 0,0.849540741 0,1.8962963 C0,2.94305185 0.637155556,3.79259259 1.42222222,3.79259259 Z" id="Shape"></path>
                    <path d="M43.1407407,3.79259259 L85.8074074,3.79259259 C86.5924741,3.79259259 87.2296296,2.94305185 87.2296296,1.8962963 C87.2296296,0.849540741 86.5924741,0 85.8074074,0 L43.1407407,0 C42.3556741,0 41.7185185,0.849540741 41.7185185,1.8962963 C41.7185185,2.94305185 42.3556741,3.79259259 43.1407407,3.79259259 Z" id="Shape"></path>
                </g>
            </g>
            <g id="Group-5" transform="translate(17.066667, 31.170370)" fill="#F6F6F6" fill-rule="nonzero">
                <g id="Group-2">
                    <path d="M1.42222222,3.79259259 L44.0888889,3.79259259 C44.8739556,3.79259259 45.5111111,2.94305185 45.5111111,1.8962963 C45.5111111,0.849540741 44.8739556,0 44.0888889,0 L1.42222222,0 C0.637155556,0 0,0.849540741 0,1.8962963 C0,2.94305185 0.637155556,3.79259259 1.42222222,3.79259259 Z" id="Shape"></path>
                    <path d="M43.1407407,3.79259259 L85.8074074,3.79259259 C86.5924741,3.79259259 87.2296296,2.94305185 87.2296296,1.8962963 C87.2296296,0.849540741 86.5924741,0 85.8074074,0 L43.1407407,0 C42.3556741,0 41.7185185,0.849540741 41.7185185,1.8962963 C41.7185185,2.94305185 42.3556741,3.79259259 43.1407407,3.79259259 Z" id="Shape"></path>
                </g>
                <g id="Group-3" transform="translate(0.000000, 9.718519)">
                    <path d="M1.42222222,3.79259259 L44.0888889,3.79259259 C44.8739556,3.79259259 45.5111111,2.94305185 45.5111111,1.8962963 C45.5111111,0.849540741 44.8739556,0 44.0888889,0 L1.42222222,0 C0.637155556,0 0,0.849540741 0,1.8962963 C0,2.94305185 0.637155556,3.79259259 1.42222222,3.79259259 Z" id="Shape"></path>
                    <path d="M43.1407407,3.79259259 L85.8074074,3.79259259 C86.5924741,3.79259259 87.2296296,2.94305185 87.2296296,1.8962963 C87.2296296,0.849540741 86.5924741,0 85.8074074,0 L43.1407407,0 C42.3556741,0 41.7185185,0.849540741 41.7185185,1.8962963 C41.7185185,2.94305185 42.3556741,3.79259259 43.1407407,3.79259259 Z" id="Shape"></path>
                </g>
                <g id="Group-4" transform="translate(0.000000, 19.437037)">
                    <path d="M1.42222222,3.79259259 L44.0888889,3.79259259 C44.8739556,3.79259259 45.5111111,2.94305185 45.5111111,1.8962963 C45.5111111,0.849540741 44.8739556,0 44.0888889,0 L1.42222222,0 C0.637155556,0 0,0.849540741 0,1.8962963 C0,2.94305185 0.637155556,3.79259259 1.42222222,3.79259259 Z" id="Shape"></path>
                    <path d="M43.1407407,3.79259259 L85.8074074,3.79259259 C86.5924741,3.79259259 87.2296296,2.94305185 87.2296296,1.8962963 C87.2296296,0.849540741 86.5924741,0 85.8074074,0 L43.1407407,0 C42.3556741,0 41.7185185,0.849540741 41.7185185,1.8962963 C41.7185185,2.94305185 42.3556741,3.79259259 43.1407407,3.79259259 Z" id="Shape"></path>
                </g>
            </g>
            <g id="Group-5" transform="translate(17.000000, 62.000000)" fill="#F6F6F6" fill-rule="nonzero">
                <g id="Group-2">
                    <path d="M1.42222222,3.79259259 L44.0888889,3.79259259 C44.8739556,3.79259259 45.5111111,2.94305185 45.5111111,1.8962963 C45.5111111,0.849540741 44.8739556,0 44.0888889,0 L1.42222222,0 C0.637155556,0 0,0.849540741 0,1.8962963 C0,2.94305185 0.637155556,3.79259259 1.42222222,3.79259259 Z" id="Shape"></path>
                    <path d="M43.1407407,3.79259259 L85.8074074,3.79259259 C86.5924741,3.79259259 87.2296296,2.94305185 87.2296296,1.8962963 C87.2296296,0.849540741 86.5924741,0 85.8074074,0 L43.1407407,0 C42.3556741,0 41.7185185,0.849540741 41.7185185,1.8962963 C41.7185185,2.94305185 42.3556741,3.79259259 43.1407407,3.79259259 Z" id="Shape"></path>
                </g>
                <g id="Group-3" transform="translate(0.000000, 9.718519)">
                    <path d="M1.42222222,3.79259259 L44.0888889,3.79259259 C44.8739556,3.79259259 45.5111111,2.94305185 45.5111111,1.8962963 C45.5111111,0.849540741 44.8739556,0 44.0888889,0 L1.42222222,0 C0.637155556,0 0,0.849540741 0,1.8962963 C0,2.94305185 0.637155556,3.79259259 1.42222222,3.79259259 Z" id="Shape"></path>
                    <path d="M43.1407407,3.79259259 L85.8074074,3.79259259 C86.5924741,3.79259259 87.2296296,2.94305185 87.2296296,1.8962963 C87.2296296,0.849540741 86.5924741,0 85.8074074,0 L43.1407407,0 C42.3556741,0 41.7185185,0.849540741 41.7185185,1.8962963 C41.7185185,2.94305185 42.3556741,3.79259259 43.1407407,3.79259259 Z" id="Shape"></path>
                </g>
                <g id="Group-4" transform="translate(0.000000, 19.437037)">
                    <path d="M1.42222222,3.79259259 L44.0888889,3.79259259 C44.8739556,3.79259259 45.5111111,2.94305185 45.5111111,1.8962963 C45.5111111,0.849540741 44.8739556,0 44.0888889,0 L1.42222222,0 C0.637155556,0 0,0.849540741 0,1.8962963 C0,2.94305185 0.637155556,3.79259259 1.42222222,3.79259259 Z" id="Shape"></path>
                    <path d="M43.1407407,3.79259259 L85.8074074,3.79259259 C86.5924741,3.79259259 87.2296296,2.94305185 87.2296296,1.8962963 C87.2296296,0.849540741 86.5924741,0 85.8074074,0 L43.1407407,0 C42.3556741,0 41.7185185,0.849540741 41.7185185,1.8962963 C41.7185185,2.94305185 42.3556741,3.79259259 43.1407407,3.79259259 Z" id="Shape"></path>
                </g>
            </g>
            <circle id="Oval" fill="#8E97A7" fill-rule="nonzero" cx="12.3259259" cy="12.3259259" r="2.84444444"></circle>
            <circle id="Oval" fill="#8E97A7" fill-rule="nonzero" cx="23.7037037" cy="12.3259259" r="2.84444444"></circle>
            <circle id="Oval" fill="#8E97A7" fill-rule="nonzero" cx="35.0814815" cy="12.3259259" r="2.84444444"></circle>
        </g>
    </g>
</svg>