<?xml version="1.0" encoding="UTF-8"?>
<svg width="122px" height="128px" viewBox="0 0 122 128" version="1.1" xmlns="http://www.w3.org/2000/svg" xmlns:xlink="http://www.w3.org/1999/xlink">
    <!-- Generator: Sketch 52.2 (67145) - http://www.bohemiancoding.com/sketch -->
    <title>before_comment</title>
    <desc>Created with Sketch.</desc>
    <g id="Page-1" stroke="none" stroke-width="1" fill="none" fill-rule="evenodd">
        <g id="before_comment">
            <path d="M2.88959436,82.8767677 L2.88959436,22.7986532 C2.88959436,21.9897966 2.24232522,21.3333333 1.44479718,21.3333333 C0.647269136,21.3333333 0,21.9897966 0,22.7986532 L0,81.4114478 C0,83.8350869 2.88959436,83.6856242 2.88959436,82.8767677 Z" id="Shape" fill="#8E97A7" fill-rule="nonzero"></path>
            <path d="M119.918166,21.3333333 C119.120638,21.3333333 118.473369,21.9897966 118.473369,22.7986532 L118.473369,81.4114478 C118.473369,82.2203044 121.362963,83.8350869 121.362963,81.4114478 L121.362963,22.7986532 C121.362963,21.9897966 120.715694,21.3333333 119.918166,21.3333333 Z" id="Shape" fill="#8E97A7" fill-rule="nonzero"></path>
            <path d="M119.918166,63.2888889 C119.120638,63.2888889 118.473369,63.9453522 118.473369,64.7542088 L118.473369,123.367003 C118.473369,124.17586 117.826099,124.832323 117.028571,124.832323 L4.33439153,124.832323 C3.53686349,124.832323 2.88959436,124.17586 2.88959436,123.367003 L2.88959436,64.7542088 C2.88959436,63.9453522 2.24232522,63.2888889 1.44479718,63.2888889 C0.647269136,63.2888889 0,63.9453522 0,64.7542088 L0,123.367003 C0,125.790642 1.944697,127.762963 4.33439153,127.762963 L117.028571,127.762963 C119.418266,127.762963 121.362963,125.790642 121.362963,123.367003 L121.362963,64.7542088 C121.362963,63.9453522 120.715694,63.2888889 119.918166,63.2888889 Z" id="Shape" fill="#8E97A7" fill-rule="nonzero"></path>
            <path d="M117.028571,0 L4.33439153,0 C1.944697,0 0,1.91431111 0,4.26666667 L0,21.3333333 C0,22.1184 0.647269136,22.7555556 1.44479718,22.7555556 L119.918166,22.7555556 C120.715694,22.7555556 121.362963,22.1184 121.362963,21.3333333 L121.362963,4.26666667 C121.362963,1.91431111 119.418266,0 117.028571,0 Z M118.473369,19.9111111 L2.88959436,19.9111111 L2.88959436,4.26666667 C2.88959436,3.4816 3.53686349,2.84444444 4.33439153,2.84444444 L117.028571,2.84444444 C117.826099,2.84444444 118.473369,3.4816 118.473369,4.26666667 L118.473369,19.9111111 Z" id="Shape" fill="#8E97A7" fill-rule="nonzero"></path>
            <circle id="Oval" fill="#828282" fill-rule="nonzero" cx="12.3259259" cy="12.3259259" r="2.84444444"></circle>
            <circle id="Oval" fill="#828282" fill-rule="nonzero" cx="23.7037037" cy="12.3259259" r="2.84444444"></circle>
            <circle id="Oval" fill="#828282" fill-rule="nonzero" cx="35.0814815" cy="12.3259259" r="2.84444444"></circle>
            <g id="Ad" transform="translate(18.000000, 29.000000)" fill="#658EC4">
                <rect id="Rectangle" x="0.0666666667" y="0.681481481" width="87.2296296" height="26.4296296" rx="4"></rect>
            </g>
            <g id="Group-5" transform="translate(59.000000, 62.000000)" fill="#8E97A7" fill-rule="nonzero">
                <g id="Group-2">
                    <path d="M2.14074074,3.79259259 L44.8074074,3.79259259 C45.5924741,3.79259259 46.2296296,2.94305185 46.2296296,1.8962963 C46.2296296,0.849540741 45.5924741,0 44.8074074,0 L2.14074074,0 C1.35567407,0 0.718518519,0.849540741 0.718518519,1.8962963 C0.718518519,2.94305185 1.35567407,3.79259259 2.14074074,3.79259259 Z" id="Shape"></path>
                </g>
                <g id="Group-3" transform="translate(0.000000, 9.718519)">
                    <path d="M2.14074074,3.79259259 L44.8074074,3.79259259 C45.5924741,3.79259259 46.2296296,2.94305185 46.2296296,1.8962963 C46.2296296,0.849540741 45.5924741,0 44.8074074,0 L2.14074074,0 C1.35567407,0 0.718518519,0.849540741 0.718518519,1.8962963 C0.718518519,2.94305185 1.35567407,3.79259259 2.14074074,3.79259259 Z" id="Shape"></path>
                </g>
                <g id="Group-4" transform="translate(0.000000, 19.437037)">
                    <path d="M2.14074074,3.79259259 L44.8074074,3.79259259 C45.5924741,3.79259259 46.2296296,2.94305185 46.2296296,1.8962963 C46.2296296,0.849540741 45.5924741,0 44.8074074,0 L2.14074074,0 C1.35567407,0 0.718518519,0.849540741 0.718518519,1.8962963 C0.718518519,2.94305185 1.35567407,3.79259259 2.14074074,3.79259259 Z" id="Shape"></path>
                </g>
            </g>
            <g id="user-(1)" transform="translate(18.000000, 62.000000)" fill="#8E97A7" fill-rule="nonzero">
                <path d="M24,11.9998686 C24,5.38314105 18.6168,0 12,0 C5.3832,0 0,5.38314105 0,11.9998686 C0,14.4566417 0.7432,16.7426166 2.0152,18.6469958 L2.0144,18.6553957 L2.0972,18.7765944 C4.338,22.0457586 8.1712,24.0529366 12.1388,23.9989372 C16.0232,23.9461378 19.7244,21.9673594 21.916,18.7569946 L21.9856,18.6553957 L21.9848,18.6469958 C23.2568,16.7426166 24,14.4566417 24,11.9998686 Z M23.2,11.9998686 C23.2,13.9886468 22.6764,15.8566263 21.7636,17.4774086 C21.0788,15.2078335 18.9832,13.5998511 16.5244,13.5998511 L15.0344,13.5998511 L14.146,13.5998511 C14.0656,13.5998511 14,13.5342518 14,13.4538527 L14,13.1958555 C14,13.1226563 14.0596,13.0746568 14.1104,13.055057 C16.686,12.0866676 18.2924,8.06951163 17.9556,5.2599424 C17.78,3.79675842 17.0552,2.48917274 16.0024,1.54198311 C20.2068,3.15676543 23.2,7.23432077 23.2,11.9998686 Z M10.1964,12.3162651 C8.2836,11.6086729 6.8,8.33990867 6.8,5.99993429 C6.8,5.70913748 6.83,5.42594058 6.876,5.14794362 C7.6832,4.27115322 8.9664,4.07355539 10.0672,4.56115005 C10.4136,4.71474837 10.7968,4.79994743 11.2,4.79994743 C12.3768,4.79994743 13.3824,4.0727554 13.7968,3.04396666 C15.0448,3.38676291 16.2272,4.08955521 17.106,5.01914503 C17.1272,5.13034382 17.1476,5.24194259 17.1612,5.35514135 C17.4552,7.80951447 15.9756,11.4990741 13.8292,12.3062652 C13.4468,12.4502637 13.2,12.7994598 13.2,13.1958555 L13.2,13.4538527 C13.2,13.975047 13.6248,14.3998423 14.146,14.3998423 L14.2344,14.3998423 L12,16.6342178 L9.7656,14.3998423 L9.854,14.3998423 C10.3756,14.3998423 10.8,13.975047 10.8,13.4538527 L10.8,13.1998554 C10.8,12.8054598 10.558,12.4502637 10.1964,12.3162651 Z M7.9996,1.54118312 C6.7756,2.64037108 6,4.22915368 6,5.99993429 C6,8.65150525 7.676,12.237066 9.9188,13.0662569 C9.9664,13.0842567 10,13.1390561 10,13.1998554 L10,13.4538527 C10,13.5342518 9.9344,13.5998511 9.854,13.5998511 L8.9656,13.5998511 L7.476,13.5998511 C6.1304,13.5998511 4.8104,14.1054455 3.808,15.0018357 C3.0804,15.6566285 2.5296,16.5066192 2.2364,17.4774086 C1.3236,15.8566263 0.8,13.9886468 0.8,11.9998686 C0.8,7.23312079 3.7944,3.15516545 7.9996,1.54118312 C6.7756,2.64037108 3.7944,3.15516545 7.9996,1.54118312 Z M5.6,21.182968 C5.6,20.7009733 5.6,20.2189786 5.6,19.7369839 C5.6,19.5589858 5.6,19.3813877 5.6,19.2033897 C5.6,19.1957898 6.2532,19.1997897 6.3168,19.1997897 C6.4552,19.1997897 6.4,19.3129885 6.4,19.4389871 C6.4,19.7349839 6.4,20.0309806 6.4,20.3269774 C6.4,20.7821724 6.4,21.2373674 6.4,21.6929624 C6.1264,21.5341642 5.8592,21.364566 5.6,21.182968 Z M17.6,21.6929624 C17.6,21.2113677 17.6,20.729773 17.6,20.2481783 C17.6,19.9625814 17.6,19.6773845 17.6,19.3917876 C17.6,19.1441903 17.6216,19.1997897 17.8816,19.1997897 C17.9932,19.1997897 18.4,19.1249906 18.4,19.2609891 C18.4,19.544986 18.4,19.8289828 18.4,20.1129797 C18.4,20.4105765 18.4,20.7081732 18.4,21.00577 C18.4,21.366966 17.8848,21.5277642 17.6,21.6929624 Z" id="Shape"></path>
            </g>
            <g id="Group-5" transform="translate(59.000000, 91.000000)" fill="#8E97A7" fill-rule="nonzero">
                <g id="Group-2">
                    <path d="M2.14074074,3.79259259 L44.8074074,3.79259259 C45.5924741,3.79259259 46.2296296,2.94305185 46.2296296,1.8962963 C46.2296296,0.849540741 45.5924741,0 44.8074074,0 L2.14074074,0 C1.35567407,0 0.718518519,0.849540741 0.718518519,1.8962963 C0.718518519,2.94305185 1.35567407,3.79259259 2.14074074,3.79259259 Z" id="Shape"></path>
                </g>
                <g id="Group-3" transform="translate(0.000000, 9.718519)">
                    <path d="M2.14074074,3.79259259 L44.8074074,3.79259259 C45.5924741,3.79259259 46.2296296,2.94305185 46.2296296,1.8962963 C46.2296296,0.849540741 45.5924741,0 44.8074074,0 L2.14074074,0 C1.35567407,0 0.718518519,0.849540741 0.718518519,1.8962963 C0.718518519,2.94305185 1.35567407,3.79259259 2.14074074,3.79259259 Z" id="Shape"></path>
                </g>
                <g id="Group-4" transform="translate(0.000000, 19.437037)">
                    <path d="M2.14074074,3.79259259 L44.8074074,3.79259259 C45.5924741,3.79259259 46.2296296,2.94305185 46.2296296,1.8962963 C46.2296296,0.849540741 45.5924741,0 44.8074074,0 L2.14074074,0 C1.35567407,0 0.718518519,0.849540741 0.718518519,1.8962963 C0.718518519,2.94305185 1.35567407,3.79259259 2.14074074,3.79259259 Z" id="Shape"></path>
                </g>
            </g>
            <g id="user-(1)" transform="translate(18.000000, 91.000000)" fill="#8E97A7" fill-rule="nonzero">
                <path d="M24,11.9998686 C24,5.38314105 18.6168,0 12,0 C5.3832,0 0,5.38314105 0,11.9998686 C0,14.4566417 0.7432,16.7426166 2.0152,18.6469958 L2.0144,18.6553957 L2.0972,18.7765944 C4.338,22.0457586 8.1712,24.0529366 12.1388,23.9989372 C16.0232,23.9461378 19.7244,21.9673594 21.916,18.7569946 L21.9856,18.6553957 L21.9848,18.6469958 C23.2568,16.7426166 24,14.4566417 24,11.9998686 Z M23.2,11.9998686 C23.2,13.9886468 22.6764,15.8566263 21.7636,17.4774086 C21.0788,15.2078335 18.9832,13.5998511 16.5244,13.5998511 L15.0344,13.5998511 L14.146,13.5998511 C14.0656,13.5998511 14,13.5342518 14,13.4538527 L14,13.1958555 C14,13.1226563 14.0596,13.0746568 14.1104,13.055057 C16.686,12.0866676 18.2924,8.06951163 17.9556,5.2599424 C17.78,3.79675842 17.0552,2.48917274 16.0024,1.54198311 C20.2068,3.15676543 23.2,7.23432077 23.2,11.9998686 Z M10.1964,12.3162651 C8.2836,11.6086729 6.8,8.33990867 6.8,5.99993429 C6.8,5.70913748 6.83,5.42594058 6.876,5.14794362 C7.6832,4.27115322 8.9664,4.07355539 10.0672,4.56115005 C10.4136,4.71474837 10.7968,4.79994743 11.2,4.79994743 C12.3768,4.79994743 13.3824,4.0727554 13.7968,3.04396666 C15.0448,3.38676291 16.2272,4.08955521 17.106,5.01914503 C17.1272,5.13034382 17.1476,5.24194259 17.1612,5.35514135 C17.4552,7.80951447 15.9756,11.4990741 13.8292,12.3062652 C13.4468,12.4502637 13.2,12.7994598 13.2,13.1958555 L13.2,13.4538527 C13.2,13.975047 13.6248,14.3998423 14.146,14.3998423 L14.2344,14.3998423 L12,16.6342178 L9.7656,14.3998423 L9.854,14.3998423 C10.3756,14.3998423 10.8,13.975047 10.8,13.4538527 L10.8,13.1998554 C10.8,12.8054598 10.558,12.4502637 10.1964,12.3162651 Z M7.9996,1.54118312 C6.7756,2.64037108 6,4.22915368 6,5.99993429 C6,8.65150525 7.676,12.237066 9.9188,13.0662569 C9.9664,13.0842567 10,13.1390561 10,13.1998554 L10,13.4538527 C10,13.5342518 9.9344,13.5998511 9.854,13.5998511 L8.9656,13.5998511 L7.476,13.5998511 C6.1304,13.5998511 4.8104,14.1054455 3.808,15.0018357 C3.0804,15.6566285 2.5296,16.5066192 2.2364,17.4774086 C1.3236,15.8566263 0.8,13.9886468 0.8,11.9998686 C0.8,7.23312079 3.7944,3.15516545 7.9996,1.54118312 C6.7756,2.64037108 3.7944,3.15516545 7.9996,1.54118312 Z M5.6,21.182968 C5.6,20.7009733 5.6,20.2189786 5.6,19.7369839 C5.6,19.5589858 5.6,19.3813877 5.6,19.2033897 C5.6,19.1957898 6.2532,19.1997897 6.3168,19.1997897 C6.4552,19.1997897 6.4,19.3129885 6.4,19.4389871 C6.4,19.7349839 6.4,20.0309806 6.4,20.3269774 C6.4,20.7821724 6.4,21.2373674 6.4,21.6929624 C6.1264,21.5341642 5.8592,21.364566 5.6,21.182968 Z M17.6,21.6929624 C17.6,21.2113677 17.6,20.729773 17.6,20.2481783 C17.6,19.9625814 17.6,19.6773845 17.6,19.3917876 C17.6,19.1441903 17.6216,19.1997897 17.8816,19.1997897 C17.9932,19.1997897 18.4,19.1249906 18.4,19.2609891 C18.4,19.544986 18.4,19.8289828 18.4,20.1129797 C18.4,20.4105765 18.4,20.7081732 18.4,21.00577 C18.4,21.366966 17.8848,21.5277642 17.6,21.6929624 Z" id="Shape"></path>
            </g>
        </g>
    </g>
</svg>