<?xml version="1.0" encoding="UTF-8"?>
<svg width="122px" height="128px" viewBox="0 0 122 128" version="1.1" xmlns="http://www.w3.org/2000/svg" xmlns:xlink="http://www.w3.org/1999/xlink">
    <!-- Generator: Sketch 52.2 (67145) - http://www.bohemiancoding.com/sketch -->
    <title>redirection</title>
    <desc>Created with Sketch.</desc>
    <g id="Page-1" stroke="none" stroke-width="1" fill="none" fill-rule="evenodd">
        <g id="redirection">
            <path d="M2.88959436,82.8767677 L2.88959436,22.7986532 C2.88959436,21.9897966 2.24232522,21.3333333 1.44479718,21.3333333 C0.647269136,21.3333333 -1.13686838e-13,21.9897966 -1.13686838e-13,22.7986532 L-1.13686838e-13,81.4114478 C-1.13686838e-13,83.8350869 2.88959436,83.6856242 2.88959436,82.8767677 Z" id="Shape" fill="#8E97A7" fill-rule="nonzero"></path>
            <path d="M119.918166,21.3333333 C119.120638,21.3333333 118.473369,21.9897966 118.473369,22.7986532 L118.473369,81.4114478 C118.473369,82.2203044 121.362963,83.8350869 121.362963,81.4114478 L121.362963,22.7986532 C121.362963,21.9897966 120.715694,21.3333333 119.918166,21.3333333 Z" id="Shape" fill="#8E97A7" fill-rule="nonzero"></path>
            <path d="M119.918166,63.2888889 C119.120638,63.2888889 118.473369,63.9453522 118.473369,64.7542088 L118.473369,123.367003 C118.473369,124.17586 117.826099,124.832323 117.028571,124.832323 L4.33439153,124.832323 C3.53686349,124.832323 2.88959436,124.17586 2.88959436,123.367003 L2.88959436,64.7542088 C2.88959436,63.9453522 2.24232522,63.2888889 1.44479718,63.2888889 C0.647269136,63.2888889 0,63.9453522 0,64.7542088 L0,123.367003 C0,125.790642 1.944697,127.762963 4.33439153,127.762963 L117.028571,127.762963 C119.418266,127.762963 121.362963,125.790642 121.362963,123.367003 L121.362963,64.7542088 C121.362963,63.9453522 120.715694,63.2888889 119.918166,63.2888889 Z" id="Shape" fill="#8E97A7" fill-rule="nonzero"></path>
            <path d="M117.028571,0 L4.33439153,0 C1.944697,0 0,1.91431111 0,4.26666667 L0,21.3333333 C0,22.1184 0.647269136,22.7555556 1.44479718,22.7555556 L119.918166,22.7555556 C120.715694,22.7555556 121.362963,22.1184 121.362963,21.3333333 L121.362963,4.26666667 C121.362963,1.91431111 119.418266,0 117.028571,0 Z M118.473369,19.9111111 L2.88959436,19.9111111 L2.88959436,4.26666667 C2.88959436,3.4816 3.53686349,2.84444444 4.33439153,2.84444444 L117.028571,2.84444444 C117.826099,2.84444444 118.473369,3.4816 118.473369,4.26666667 L118.473369,19.9111111 Z" id="Shape" fill="#8E97A7" fill-rule="nonzero"></path>
            <circle id="Oval" fill="#8E97A7" fill-rule="nonzero" cx="12.3259259" cy="12.3259259" r="2.84444444"></circle>
            <circle id="Oval" fill="#8E97A7" fill-rule="nonzero" cx="23.7037037" cy="12.3259259" r="2.84444444"></circle>
            <circle id="Oval" fill="#8E97A7" fill-rule="nonzero" cx="35.0814815" cy="12.3259259" r="2.84444444"></circle>
            <path d="M86.1304348,51.9832776 L72.9130435,51.9832776 L72.9130435,32.1304348 L53.0869565,32.1304348 L53.0869565,51.9832776 L39.8695652,51.9832776 L63,75.1449275 L86.1304348,51.9832776 Z M39.8695652,81.6376812 L39.8695652,88.1304348 L86.1304348,88.1304348 L86.1304348,81.6376812 L39.8695652,81.6376812 Z" id="Shape" fill="#658EC4" fill-rule="nonzero" transform="translate(63.000000, 60.130435) rotate(270.000000) translate(-63.000000, -60.130435) "></path>
            <text id="REDIRECTION" font-family="Chalkduster" font-size="12" font-weight="normal" fill="#658EC4">
                <tspan x="15.3712707" y="112">REDIRECTION</tspan>
            </text>
        </g>
    </g>
</svg>