<?xml version="1.0" encoding="UTF-8"?>
<svg width="122px" height="128px" viewBox="0 0 122 128" version="1.1" xmlns="http://www.w3.org/2000/svg" xmlns:xlink="http://www.w3.org/1999/xlink">
    <!-- Generator: Sketch 52.2 (67145) - http://www.bohemiancoding.com/sketch -->
    <title>widget</title>
    <desc>Created with Sketch.</desc>
    <g id="Page-1" stroke="none" stroke-width="1" fill="none" fill-rule="evenodd">
        <g id="widget">
            <path d="M2.88959436,82.8767677 L2.88959436,22.7986532 C2.88959436,21.9897966 2.24232522,21.3333333 1.44479718,21.3333333 C0.647269136,21.3333333 -1.13908882e-13,21.9897966 -1.13908882e-13,22.7986532 L-1.13908882e-13,81.4114478 C-1.13908882e-13,83.8350869 2.88959436,83.6856242 2.88959436,82.8767677 Z" id="Shape" fill="#8E97A7" fill-rule="nonzero"></path>
            <path d="M119.918166,21.3333333 C119.120638,21.3333333 118.473369,21.9897966 118.473369,22.7986532 L118.473369,81.4114478 C118.473369,82.2203044 121.362963,83.8350869 121.362963,81.4114478 L121.362963,22.7986532 C121.362963,21.9897966 120.715694,21.3333333 119.918166,21.3333333 Z" id="Shape" fill="#8E97A7" fill-rule="nonzero"></path>
            <path d="M119.918166,63.2888889 C119.120638,63.2888889 118.473369,63.9453522 118.473369,64.7542088 L118.473369,123.367003 C118.473369,124.17586 117.826099,124.832323 117.028571,124.832323 L4.33439153,124.832323 C3.53686349,124.832323 2.88959436,124.17586 2.88959436,123.367003 L2.88959436,64.7542088 C2.88959436,63.9453522 2.24232522,63.2888889 1.44479718,63.2888889 C0.647269136,63.2888889 0,63.9453522 0,64.7542088 L0,123.367003 C0,125.790642 1.944697,127.762963 4.33439153,127.762963 L117.028571,127.762963 C119.418266,127.762963 121.362963,125.790642 121.362963,123.367003 L121.362963,64.7542088 C121.362963,63.9453522 120.715694,63.2888889 119.918166,63.2888889 Z" id="Shape" fill="#8E97A7" fill-rule="nonzero"></path>
            <path d="M117.028571,0 L4.33439153,0 C1.944697,0 0,1.91431111 0,4.26666667 L0,21.3333333 C0,22.1184 0.647269136,22.7555556 1.44479718,22.7555556 L119.918166,22.7555556 C120.715694,22.7555556 121.362963,22.1184 121.362963,21.3333333 L121.362963,4.26666667 C121.362963,1.91431111 119.418266,0 117.028571,0 Z M118.473369,19.9111111 L2.88959436,19.9111111 L2.88959436,4.26666667 C2.88959436,3.4816 3.53686349,2.84444444 4.33439153,2.84444444 L117.028571,2.84444444 C117.826099,2.84444444 118.473369,3.4816 118.473369,4.26666667 L118.473369,19.9111111 Z" id="Shape" fill="#8E97A7" fill-rule="nonzero"></path>
            <circle id="Oval" fill="#8E97A7" fill-rule="nonzero" cx="12.3259259" cy="12.3259259" r="2.84444444"></circle>
            <circle id="Oval" fill="#8E97A7" fill-rule="nonzero" cx="23.7037037" cy="12.3259259" r="2.84444444"></circle>
            <circle id="Oval" fill="#8E97A7" fill-rule="nonzero" cx="35.0814815" cy="12.3259259" r="2.84444444"></circle>
            <g id="Wordpress-Logo" transform="translate(32.237037, 32.000000)" fill="#658EC4">
                <path d="M29.000786,4.06406474 C35.5057149,4.06406474 41.4285554,6.55680489 45.8683277,10.6380493 C43.6922329,10.5796608 41.5206296,11.8731908 41.4308011,14.8352848 C41.2477756,20.8234754 48.5912533,22.0990398 44.6343091,34.1439153 L41.361184,44.1070159 L32.4468308,17.8479072 C32.3087196,17.4414334 32.469288,17.2101251 32.9689588,17.2101251 L35.489209,17.2101251 C35.6201901,17.2101251 35.7272657,17.0982886 35.7272657,16.9613226 L35.7272657,15.468598 C35.7272657,15.3316882 35.6199206,15.2141925 35.489209,15.2198517 C30.7165099,15.4285569 25.9718821,15.4299717 21.2558872,15.2198517 C21.1245131,15.2142374 21.0178418,15.3321373 21.0178418,15.4691257 L21.0178418,16.9618504 C21.0178418,17.0986704 21.1249622,17.2106528 21.2558985,17.2106528 L23.7899597,17.2106528 C24.3536446,17.2106528 24.511462,17.3984841 24.644352,17.7618291 L28.3071081,27.7788268 L22.797254,44.4161831 L13.7402981,17.739372 C13.6280125,17.4047609 13.7638781,17.2105068 14.0861378,17.2105068 L16.9735618,17.2105068 C17.104498,17.2105068 17.2115735,17.0986704 17.2115735,16.9617044 L17.2115735,15.4689797 C17.2115735,15.3320699 17.1041162,15.2133728 16.9735618,15.2202335 C13.9440965,15.38115 10.9030658,15.4135107 8.07032485,15.4425926 C12.5155992,8.59496806 20.2286088,4.06357068 28.9992365,4.06357068 L28.9992039,4.06350106 L29.000786,4.06406474 Z M50.9324079,17.1262477 C52.8485616,20.656619 53.936609,24.7014829 53.936609,28.9993263 C53.936609,38.4318775 48.6956789,46.6416386 40.9687459,50.8792969 L48.745646,28.8522322 C49.9504704,25.4432416 51.0688349,20.8361637 50.9318465,17.1262477 L50.9318016,17.1262477 L50.9324079,17.1262477 Z M37.3492198,52.5007008 C34.7385798,53.4293027 31.9291943,53.9357107 29.000786,53.9357107 C26.4777287,53.9357107 24.0433771,53.559554 21.7482596,52.8633833 L29.4302784,30.84867 L37.3491075,52.5018237 L37.3491075,52.5018226 L37.3492198,52.5007008 Z M18.3302861,51.5417819 C9.89752585,47.5425059 4.0644016,38.9511984 4.0644016,29.0004491 C4.0644016,25.3116429 4.86685058,21.8099044 6.3050606,18.6593952 L18.3308812,51.542231 L18.3302861,51.5417819 Z M29,1.72403299 C44.0608665,1.72403299 56.2752933,13.9384598 56.2752933,28.9993263 C56.2752933,44.0601928 44.0608665,56.2746196 29,56.2746196 C13.9391335,56.2746196 1.7247067,44.0601928 1.7247067,28.9993263 C1.7247067,13.9384598 13.9391335,1.72403299 29,1.72403299 Z M29,0 C45.0130484,0 58,12.9869516 58,29 C58,45.0130484 45.0130484,58 29,58 C12.9869516,58 0,45.0130484 0,29 C0,12.9869516 12.9869516,4.98648201e-15 29,0 Z" id="Shape"></path>
            </g>
            <text id="WIDGET" font-family="Chalkduster" font-size="12" font-weight="normal" fill="#658EC4">
                <tspan x="32.1005525" y="111.525926">WIDGET</tspan>
            </text>
        </g>
    </g>
</svg>