<?xml version="1.0" encoding="UTF-8"?>
<svg width="18px" height="19px" viewBox="0 0 18 19" version="1.1" xmlns="http://www.w3.org/2000/svg" xmlns:xlink="http://www.w3.org/1999/xlink">
    <g id="Fill-1" stroke="none" stroke-width="1" fill="none" fill-rule="evenodd">
        <path d="M16.4242376,0.995954697 C16.4242376,0.995954697 8.99931334,1.55221105 13.9905934,9.94013904 C15.3385273,12.2053523 12.183334,13.4311699 9.43050631,13.4051452 C7.33150128,13.3851398 5.46658732,12.6375043 6.0108317,11.0664608 L7.26690048,7.94119236 C7.41173131,7.58056403 7.64912188,7.58056403 7.79412637,7.94119236 L9.7038441,12.6932716 C10.789728,12.6702565 11.8163945,12.4498431 12.5462793,12.1097513 L7.79464734,0.270626155 C7.6494692,-0.0901792065 7.4125996,-0.0901792065 7.26742145,0.270449116 L0.0481083833,18.2282171 C-0.0968961008,18.5890224 0.0970799576,18.8841463 0.479648674,18.8841463 L2.1736831,18.8841463 C7.03732452,18.8841463 21.4651839,15.0551481 17.0615627,9.24951013 C14.2496913,5.5423147 13.063433,2.41368254 16.4242376,0.995954697 Z" fill="#9FA3A7"></path>
        <path d="M11.6202532,17.6025037 L11.8746622,18.235595 C12.0196667,18.5964004 12.451207,18.8915243 12.8337757,18.8915243 L14.5165224,18.8915243 C14.8987438,18.8915243 15.0932408,18.5964004 14.9482363,18.235595 L14.2322441,16.4512195 C13.4188297,16.8769982 12.5345629,17.2608186 11.6202532,17.6025037 Z" id="Fill-3" fill="#9FA3A7"></path>
        <path d="M5.96859791,11.0060976 C5.90347614,11.1941129 5.87291232,11.3702667 5.87308598,11.5347358 C5.87395427,12.7456822 7.54037706,13.3270781 9.38827253,13.344782 C7.95194667,13.4417993 3.75949367,16.3834784 3.75949367,16.3834784 L5.96859791,11.0060976 Z" id="Fill-4" fill="#ADADAD"></path>
        <path d="M16.2263473,8.92073171 C16.9244528,9.53912873 17.2995542,10.5824192 17.3025064,11.5051462 C17.3056322,12.5516233 16.6865412,13.4545219 15.835443,13.9861699 C16.1000979,13.6650213 16.3562436,13.3525475 16.5606391,12.9860769 C16.8053233,12.5466663 16.9287942,12.0569765 16.9550166,11.5548941 C16.9791551,10.6457991 16.6806368,9.69917193 16.2263473,8.92073171" id="Fill-5" fill="#FFFFFE"></path>
        <path d="M14.4601191,1.73780488 C13.9019821,2.15862644 13.3691992,2.81845057 13.0972506,3.46977684 C12.7424672,4.14889822 12.7120771,4.89299289 12.8086309,5.63655644 C12.5629048,4.89617959 12.5854803,4.09737988 12.9407847,3.39258786 C13.2370454,2.71452872 13.8160214,2.08285377 14.4601191,1.73780488" id="Fill-6" fill="#FFFFFE"></path>
    </g>
</svg>
